<?xml version="1.0" encoding="utf-8"?>
<!-- Generator: Adobe Illustrator 26.0.3, SVG Export Plug-In . SVG Version: 6.00 Build 0)  -->
<svg version="1.1" id="Layer_1" xmlns="http://www.w3.org/2000/svg" xmlns:xlink="http://www.w3.org/1999/xlink" x="0px" y="0px"
	 viewBox="0 0 32 18.5" style="enable-background:new 0 0 32 18.5;" xml:space="preserve">
<style type="text/css">
	.st0{fill:#441D4F;}
	.st1{fill:#A18EA7;}
	.st2{fill:#FFFFFF;}
</style>
<g>
	<polygon class="st0" points="32,12.5 32,0 0,0 0,18.5 26,18.5 	"/>
	<polygon class="st1" points="1.5,5.1 1.5,1.5 5.1,1.5 	"/>
	<g>
		<path class="st2" d="M10,10.7c-0.2-0.1-0.3-0.1-0.4-0.2l0.2-0.4c0.1,0.1,0.2,0.1,0.4,0.2c0.1,0,0.3,0.1,0.4,0.1
			c0.3,0,0.5-0.1,0.5-0.3c0-0.1,0-0.1-0.1-0.2c-0.1,0-0.2-0.1-0.4-0.1c-0.2,0-0.4-0.1-0.5-0.1c-0.1,0-0.2-0.1-0.3-0.2
			C9.6,9.4,9.6,9.3,9.6,9.1c0-0.2,0.1-0.4,0.3-0.5c0.2-0.1,0.4-0.2,0.8-0.2c0.2,0,0.3,0,0.5,0.1c0.2,0,0.3,0.1,0.4,0.1L11.3,9
			c-0.2-0.1-0.4-0.2-0.7-0.2c-0.2,0-0.3,0-0.4,0.1c-0.1,0-0.1,0.1-0.1,0.2c0,0.1,0,0.2,0.1,0.2c0.1,0,0.2,0.1,0.4,0.1
			c0.2,0,0.3,0.1,0.5,0.1c0.1,0,0.2,0.1,0.3,0.2c0.1,0.1,0.1,0.2,0.1,0.4c0,0.2-0.1,0.4-0.3,0.5c-0.2,0.1-0.5,0.2-0.8,0.2
			C10.3,10.8,10.1,10.7,10,10.7z"/>
		<path class="st2" d="M13.5,10.6c-0.1,0.1-0.1,0.1-0.2,0.1c-0.1,0-0.2,0-0.3,0c-0.3,0-0.5-0.1-0.6-0.2c-0.1-0.1-0.2-0.3-0.2-0.6
			V8.8h-0.4V8.4h0.4V7.8h0.6v0.5h0.6v0.4h-0.6V10c0,0.1,0,0.2,0.1,0.3c0.1,0.1,0.1,0.1,0.2,0.1c0.1,0,0.2,0,0.3-0.1L13.5,10.6z"/>
		<path class="st2" d="M16.2,8.4v2.4h-0.5v-0.3c-0.1,0.1-0.2,0.2-0.3,0.2c-0.1,0.1-0.3,0.1-0.4,0.1c-0.3,0-0.6-0.1-0.7-0.3
			c-0.2-0.2-0.3-0.4-0.3-0.8V8.4h0.6v1.3c0,0.2,0,0.4,0.1,0.5c0.1,0.1,0.2,0.2,0.4,0.2c0.2,0,0.4-0.1,0.5-0.2
			c0.1-0.1,0.2-0.3,0.2-0.5V8.4H16.2z"/>
		<path class="st2" d="M19.3,7.4v3.3h-0.5v-0.3c-0.1,0.1-0.2,0.2-0.3,0.3c-0.1,0.1-0.3,0.1-0.4,0.1c-0.2,0-0.4-0.1-0.6-0.2
			c-0.2-0.1-0.3-0.2-0.4-0.4c-0.1-0.2-0.2-0.4-0.2-0.6s0.1-0.5,0.2-0.6c0.1-0.2,0.2-0.3,0.4-0.4c0.2-0.1,0.4-0.2,0.6-0.2
			c0.2,0,0.3,0,0.4,0.1c0.1,0.1,0.2,0.1,0.3,0.2V7.4H19.3z M18.4,10.2c0.1-0.1,0.2-0.1,0.3-0.3c0.1-0.1,0.1-0.2,0.1-0.4
			c0-0.1,0-0.3-0.1-0.4c-0.1-0.1-0.1-0.2-0.3-0.3c-0.1-0.1-0.2-0.1-0.4-0.1s-0.3,0-0.4,0.1c-0.1,0.1-0.2,0.1-0.3,0.3
			c-0.1,0.1-0.1,0.2-0.1,0.4c0,0.1,0,0.3,0.1,0.4c0.1,0.1,0.1,0.2,0.3,0.3c0.1,0.1,0.2,0.1,0.4,0.1S18.3,10.3,18.4,10.2z"/>
		<path class="st2" d="M22.2,8.4l-1.1,2.6c-0.1,0.3-0.2,0.4-0.4,0.5c-0.1,0.1-0.3,0.2-0.5,0.2c-0.1,0-0.2,0-0.4-0.1
			c-0.1,0-0.2-0.1-0.3-0.2l0.2-0.4c0.1,0.1,0.1,0.1,0.2,0.1c0.1,0,0.1,0,0.2,0c0.1,0,0.2,0,0.2-0.1c0.1-0.1,0.1-0.1,0.2-0.3l0-0.1
			l-1-2.4h0.6l0.7,1.8l0.7-1.8H22.2z"/>
	</g>
</g>
<g>
</g>
<g>
</g>
<g>
</g>
<g>
</g>
<g>
</g>
<g>
</g>
<g>
</g>
<g>
</g>
<g>
</g>
<g>
</g>
<g>
</g>
<g>
</g>
<g>
</g>
<g>
</g>
<g>
</g>
</svg>
