<?xml version="1.0" encoding="utf-8"?>
<!-- Generator: Adobe Illustrator 26.0.3, SVG Export Plug-In . SVG Version: 6.00 Build 0)  -->
<svg version="1.1" id="Layer_1" xmlns="http://www.w3.org/2000/svg" xmlns:xlink="http://www.w3.org/1999/xlink" x="0px" y="0px"
	 viewBox="0 0 414.5 55.9" style="enable-background:new 0 0 414.5 55.9;" xml:space="preserve">
<style type="text/css">
	.st0{fill:#8A5A91;}
	.st1{fill:#441D4F;}
</style>
<g>
	<path class="st0" d="M10.8,8.7V21h21.6v8.7H10.8v17H0V0h35.3v8.7H10.8z"/>
	<path class="st0" d="M71.5,36.7H49.8l-4.1,10H34.6L55.4,0h10.7L87,46.7H75.6L71.5,36.7z M68.1,28.5l-7.4-17.9l-7.4,17.9H68.1z"/>
	<path class="st0" d="M91.8,0h10.8v46.7H91.8V0z"/>
	<path class="st0" d="M143.5,46.7l-9-13h-0.5h-9.4v13h-10.8V0h20.2c4.1,0,7.7,0.7,10.8,2.1c3,1.4,5.4,3.3,7,5.9
		c1.6,2.5,2.5,5.5,2.5,9s-0.8,6.5-2.5,9c-1.7,2.5-4,4.4-7.1,5.8l10.5,15H143.5z M140.7,10.9c-1.7-1.4-4.2-2.1-7.4-2.1h-8.8v16.3h8.8
		c3.2,0,5.7-0.7,7.4-2.1c1.7-1.4,2.5-3.4,2.5-6C143.3,14.3,142.4,12.3,140.7,10.9z"/>
	<path class="st1" d="M183,46.1c-2.4-0.7-4.3-1.7-5.7-2.9l2.1-4.8c1.4,1.1,3,2,5,2.6c2,0.7,4,1,6,1c2.5,0,4.3-0.4,5.5-1.2
		c1.2-0.8,1.8-1.8,1.8-3.1c0-1-0.3-1.7-1-2.4c-0.7-0.6-1.5-1.1-2.6-1.5c-1-0.3-2.5-0.7-4.3-1.2c-2.5-0.6-4.6-1.2-6.2-1.8
		c-1.6-0.6-2.9-1.5-4-2.8c-1.1-1.3-1.7-3-1.7-5.2c0-1.8,0.5-3.5,1.5-5c1-1.5,2.5-2.7,4.5-3.6c2-0.9,4.5-1.3,7.4-1.3c2,0,4,0.3,6,0.8
		c2,0.5,3.7,1.2,5.1,2.2l-1.9,4.8c-1.5-0.9-3-1.5-4.6-1.9c-1.6-0.4-3.1-0.7-4.6-0.7c-2.4,0-4.3,0.4-5.4,1.2
		c-1.2,0.8-1.8,1.9-1.8,3.3c0,1,0.3,1.7,1,2.3c0.7,0.6,1.5,1.1,2.6,1.4c1,0.3,2.5,0.7,4.3,1.2c2.5,0.6,4.5,1.2,6.1,1.8
		c1.6,0.6,2.9,1.6,4.1,2.8c1.1,1.3,1.7,3,1.7,5.1c0,1.8-0.5,3.5-1.5,5c-1,1.5-2.5,2.7-4.5,3.6c-2,0.9-4.5,1.3-7.4,1.3
		C187.9,47.2,185.4,46.8,183,46.1z"/>
	<path class="st1" d="M230.1,22.7c1.9,1.1,3.5,2.6,4.6,4.6c1.1,2,1.7,4.2,1.7,6.8c0,2.6-0.6,4.8-1.7,6.8c-1.1,2-2.6,3.5-4.6,4.6
		c-1.9,1.1-4.2,1.6-6.6,1.6c-3.4,0-6.1-1.1-8.1-3.4v12.3h-5.9V21.3h5.7v3.3c1-1.2,2.2-2.1,3.6-2.7c1.4-0.6,3-0.9,4.8-0.9
		C226,21,228.2,21.6,230.1,22.7z M228.2,39.8c1.4-1.5,2.1-3.4,2.1-5.8s-0.7-4.3-2.1-5.8c-1.4-1.5-3.2-2.2-5.4-2.2
		c-1.4,0-2.7,0.3-3.9,1c-1.1,0.7-2,1.6-2.7,2.8c-0.7,1.2-1,2.6-1,4.2c0,1.6,0.3,3,1,4.2c0.7,1.2,1.6,2.1,2.7,2.8
		c1.1,0.7,2.4,1,3.9,1C225,42,226.8,41.2,228.2,39.8z"/>
	<path class="st1" d="M265.8,35.9h-19.9c0.3,1.9,1.3,3.4,2.7,4.4c1.5,1.1,3.3,1.6,5.5,1.6c2.8,0,5.1-0.9,6.9-2.8l3.2,3.7
		c-1.1,1.4-2.6,2.4-4.3,3.1c-1.7,0.7-3.7,1-5.9,1c-2.8,0-5.2-0.6-7.4-1.7c-2.1-1.1-3.8-2.7-4.9-4.6c-1.2-2-1.7-4.2-1.7-6.7
		c0-2.5,0.6-4.7,1.7-6.7c1.1-2,2.7-3.5,4.7-4.6c2-1.1,4.2-1.7,6.8-1.7c2.5,0,4.7,0.5,6.6,1.6c1.9,1.1,3.5,2.6,4.6,4.6
		c1.1,2,1.6,4.3,1.6,6.9C265.9,34.6,265.9,35.2,265.8,35.9z M248.3,27.5c-1.3,1.1-2.1,2.6-2.4,4.5h14.4c-0.3-1.8-1-3.3-2.3-4.5
		c-1.3-1.1-2.9-1.7-4.8-1.7C251.2,25.8,249.6,26.4,248.3,27.5z"/>
	<path class="st1" d="M276.2,45.4c-2.1-1.1-3.7-2.7-4.9-4.6c-1.2-2-1.8-4.2-1.8-6.7c0-2.5,0.6-4.7,1.8-6.7c1.2-2,2.8-3.5,4.9-4.6
		c2.1-1.1,4.4-1.7,7.1-1.7c2.5,0,4.7,0.5,6.6,1.5c1.9,1,3.3,2.5,4.3,4.4l-4.6,2.7c-0.7-1.2-1.6-2.1-2.7-2.6
		c-1.1-0.6-2.3-0.9-3.6-0.9c-2.2,0-4.1,0.7-5.5,2.2c-1.5,1.4-2.2,3.4-2.2,5.8c0,2.4,0.7,4.3,2.2,5.8c1.4,1.4,3.3,2.2,5.5,2.2
		c1.3,0,2.5-0.3,3.6-0.9c1.1-0.6,2-1.5,2.7-2.6l4.6,2.7c-1,1.9-2.4,3.4-4.3,4.4c-1.9,1-4.1,1.5-6.5,1.5
		C280.6,47,278.3,46.5,276.2,45.4z"/>
	<path class="st1" d="M314.8,45.3c-0.7,0.6-1.5,1-2.5,1.3c-1,0.3-2.1,0.4-3.2,0.4c-2.8,0-4.9-0.7-6.5-2.2c-1.5-1.5-2.3-3.6-2.3-6.4
		V26.3h-4.2v-4.8h4.2v-5.8h5.9v5.8h6.8v4.8h-6.8v12.1c0,1.2,0.3,2.2,0.9,2.8c0.6,0.7,1.5,1,2.6,1c1.3,0,2.4-0.3,3.3-1L314.8,45.3z"
		/>
	<path class="st1" d="M334.4,21v5.7c-0.5-0.1-1-0.1-1.4-0.1c-2.3,0-4.1,0.7-5.4,2c-1.3,1.3-1.9,3.3-1.9,5.8v12.3h-5.9V21.3h5.7V25
		C327.1,22.4,330.1,21,334.4,21z"/>
	<path class="st1" d="M364.3,21.3v25.4h-5.7v-3.2c-1,1.1-2.1,2-3.6,2.6c-1.4,0.6-3,0.9-4.6,0.9c-3.4,0-6.1-0.9-8-2.8
		c-1.9-1.9-2.9-4.7-2.9-8.4V21.3h5.9V35c0,2.3,0.5,4,1.5,5.1c1,1.1,2.5,1.7,4.4,1.7c2.1,0,3.8-0.7,5.1-2c1.3-1.3,1.9-3.2,1.9-5.7
		V21.3H364.3z"/>
	<path class="st1" d="M411.7,23.8c1.9,1.9,2.8,4.6,2.8,8.3v14.5h-5.9V32.9c0-2.2-0.5-3.9-1.5-5c-1-1.1-2.4-1.7-4.2-1.7
		c-2,0-3.6,0.7-4.8,2c-1.2,1.3-1.8,3.2-1.8,5.6v12.9h-5.9V32.9c0-2.2-0.5-3.9-1.5-5c-1-1.1-2.4-1.7-4.2-1.7c-2,0-3.6,0.6-4.8,1.9
		c-1.2,1.3-1.8,3.2-1.8,5.7v12.9h-5.9V21.3h5.7v3.2c1-1.1,2.1-2,3.6-2.6c1.4-0.6,3-0.9,4.8-0.9c1.9,0,3.6,0.4,5.1,1.1
		s2.6,1.8,3.5,3.2c1-1.3,2.4-2.4,4-3.1c1.6-0.7,3.5-1.1,5.5-1.1C407.3,21,409.9,22,411.7,23.8z"/>
</g>
<g>
</g>
<g>
</g>
<g>
</g>
<g>
</g>
<g>
</g>
<g>
</g>
<g>
</g>
<g>
</g>
<g>
</g>
<g>
</g>
<g>
</g>
<g>
</g>
<g>
</g>
<g>
</g>
<g>
</g>
</svg>
