<?xml version="1.0" encoding="utf-8"?>
<!-- Generator: Adobe Illustrator 26.0.3, SVG Export Plug-In . SVG Version: 6.00 Build 0)  -->
<svg version="1.1" id="Layer_1" xmlns="http://www.w3.org/2000/svg" xmlns:xlink="http://www.w3.org/1999/xlink" x="0px" y="0px"
	 viewBox="0 0 320 401.5" style="enable-background:new 0 0 320 401.5;" xml:space="preserve">
<style type="text/css">
	.st0{fill:#982468;}
	.st1{fill:#CB91B3;}
	.st2{fill:#FFFFFF;}
</style>
<g>
	<g>
		<polygon class="st0" points="319.8,124.4 319.8,0 0.2,0 0.2,184.4 259.8,184.4 		"/>
		<polygon class="st1" points="17.3,54.5 17.3,18.7 53.1,18.7 		"/>
		<g>
			<path class="st2" d="M65.8,102.4c-1.9-1-3.4-2.5-4.5-4.3c-1.1-1.8-1.6-3.9-1.6-6.3c0-2.3,0.5-4.4,1.6-6.3
				c1.1-1.8,2.6-3.3,4.5-4.3c1.9-1,4.1-1.6,6.5-1.6c2.4,0,4.6,0.5,6.5,1.6c1.9,1,3.4,2.5,4.5,4.3c1.1,1.8,1.6,3.9,1.6,6.3
				c0,2.3-0.5,4.4-1.6,6.3c-1.1,1.8-2.6,3.3-4.5,4.3c-1.9,1-4.1,1.6-6.5,1.6C69.9,103.9,67.7,103.4,65.8,102.4z M77.3,97.2
				c1.3-1.4,2-3.1,2-5.4c0-2.2-0.7-4-2-5.4c-1.3-1.4-3-2-5.1-2c-2,0-3.7,0.7-5,2c-1.3,1.4-2,3.1-2,5.4c0,2.2,0.7,4,2,5.4
				c1.3,1.4,3,2,5,2C74.3,99.2,76,98.5,77.3,97.2z"/>
			<path class="st2" d="M110.9,82.3c1.8,1.7,2.7,4.3,2.7,7.8v13.6H108V90.8c0-2.1-0.5-3.6-1.5-4.7c-1-1-2.4-1.6-4.2-1.6
				c-2,0-3.7,0.6-4.8,1.8c-1.2,1.2-1.8,3-1.8,5.3v12h-5.5V79.9h5.3V83c0.9-1.1,2.1-1.9,3.5-2.5c1.4-0.6,3-0.8,4.7-0.8
				C106.7,79.7,109.1,80.5,110.9,82.3z"/>
			<path class="st2" d="M134.9,102.3c-0.7,0.5-1.4,0.9-2.4,1.2c-0.9,0.3-1.9,0.4-2.9,0.4c-2.6,0-4.6-0.7-6-2
				c-1.4-1.4-2.1-3.3-2.1-5.9V84.6h-3.9v-4.4h3.9v-5.4h5.5v5.4h6.3v4.4h-6.3v11.3c0,1.2,0.3,2,0.8,2.6c0.6,0.6,1.4,0.9,2.4,0.9
				c1.2,0,2.3-0.3,3.1-1L134.9,102.3z"/>
			<path class="st2" d="M142.8,102.4c-1.9-1-3.4-2.5-4.5-4.3c-1.1-1.8-1.6-3.9-1.6-6.3c0-2.3,0.5-4.4,1.6-6.3
				c1.1-1.8,2.6-3.3,4.5-4.3c1.9-1,4.1-1.6,6.5-1.6c2.4,0,4.6,0.5,6.5,1.6c1.9,1,3.4,2.5,4.5,4.3c1.1,1.8,1.6,3.9,1.6,6.3
				c0,2.3-0.5,4.4-1.6,6.3c-1.1,1.8-2.6,3.3-4.5,4.3c-1.9,1-4.1,1.6-6.5,1.6C146.9,103.9,144.7,103.4,142.8,102.4z M154.3,97.2
				c1.3-1.4,2-3.1,2-5.4c0-2.2-0.7-4-2-5.4c-1.3-1.4-3-2-5.1-2s-3.7,0.7-5,2c-1.3,1.4-2,3.1-2,5.4c0,2.2,0.7,4,2,5.4
				c1.3,1.4,3,2,5,2S153,98.5,154.3,97.2z"/>
			<path class="st2" d="M167.2,70.7h5.5v32.9h-5.5V70.7z"/>
			<path class="st2" d="M184.2,102.4c-1.9-1-3.4-2.5-4.5-4.3c-1.1-1.8-1.6-3.9-1.6-6.3c0-2.3,0.5-4.4,1.6-6.3
				c1.1-1.8,2.6-3.3,4.5-4.3c1.9-1,4.1-1.6,6.5-1.6c2.4,0,4.6,0.5,6.5,1.6c1.9,1,3.4,2.5,4.5,4.3c1.1,1.8,1.6,3.9,1.6,6.3
				c0,2.3-0.5,4.4-1.6,6.3c-1.1,1.8-2.6,3.3-4.5,4.3c-1.9,1-4.1,1.6-6.5,1.6C188.3,103.9,186.1,103.4,184.2,102.4z M195.8,97.2
				c1.3-1.4,2-3.1,2-5.4c0-2.2-0.7-4-2-5.4c-1.3-1.4-3-2-5.1-2s-3.7,0.7-5,2c-1.3,1.4-2,3.1-2,5.4c0,2.2,0.7,4,2,5.4
				c1.3,1.4,3,2,5,2S194.4,98.5,195.8,97.2z"/>
			<path class="st2" d="M232.2,79.9V100c0,8.3-4.3,12.5-12.8,12.5c-2.3,0-4.4-0.3-6.5-0.9c-2-0.6-3.7-1.4-5.1-2.5l2.5-4.2
				c1,0.9,2.3,1.5,3.9,2.1c1.6,0.5,3.2,0.8,4.8,0.8c2.6,0,4.5-0.6,5.7-1.8c1.2-1.2,1.8-3,1.8-5.4v-1.2c-0.9,1-2.1,1.8-3.5,2.4
				c-1.4,0.5-2.9,0.8-4.5,0.8c-2.2,0-4.3-0.5-6.1-1.4c-1.8-1-3.3-2.3-4.3-4.1c-1-1.7-1.6-3.7-1.6-6c0-2.2,0.5-4.2,1.6-6
				c1-1.7,2.5-3.1,4.3-4c1.8-0.9,3.9-1.4,6.1-1.4c1.7,0,3.3,0.3,4.7,0.8c1.4,0.6,2.6,1.4,3.5,2.6v-3.1H232.2z M224.7,96
				c1.3-1.3,2-2.9,2-4.9c0-2-0.7-3.6-2-4.8c-1.3-1.2-3.1-1.9-5.2-1.9c-2.1,0-3.9,0.6-5.2,1.9c-1.3,1.2-2,2.9-2,4.8
				c0,2,0.7,3.6,2,4.9c1.3,1.3,3.1,1.9,5.2,1.9C221.6,97.9,223.4,97.2,224.7,96z"/>
			<path class="st2" d="M261.6,79.9l-11.1,25.6c-1,2.6-2.3,4.4-3.8,5.4c-1.5,1-3.3,1.6-5.4,1.6c-1.2,0-2.4-0.2-3.5-0.6
				c-1.2-0.4-2.1-0.9-2.8-1.6l2.2-4.1c0.5,0.5,1.2,0.9,1.9,1.2c0.7,0.3,1.5,0.4,2.2,0.4c1,0,1.8-0.3,2.4-0.8
				c0.6-0.5,1.2-1.3,1.8-2.5l0.4-0.9l-10.3-23.8h5.8l7.5,17.5l7.5-17.5H261.6z"/>
		</g>
	</g>
	<g>
		<polygon class="st0" points="319.8,277.1 319.8,401.5 0.2,401.5 0.2,217 259.8,217 		"/>
		<polygon class="st1" points="17.3,270.9 17.3,235.1 53.1,235.1 		"/>
		<g>
			<path class="st2" d="M59.9,303.9l-10.2,23.7H44l-10.2-23.7h5.8l7.4,17.6l7.6-17.6H59.9z"/>
			<path class="st2" d="M66.8,326.4c-1.9-1-3.4-2.5-4.5-4.3c-1.1-1.8-1.6-3.9-1.6-6.3c0-2.3,0.5-4.4,1.6-6.3
				c1.1-1.8,2.6-3.3,4.5-4.3c1.9-1,4.1-1.6,6.5-1.6c2.4,0,4.6,0.5,6.5,1.6c1.9,1,3.4,2.5,4.5,4.3c1.1,1.8,1.6,3.9,1.6,6.3
				c0,2.3-0.5,4.4-1.6,6.3c-1.1,1.8-2.6,3.3-4.5,4.3c-1.9,1-4.1,1.6-6.5,1.6C70.9,327.9,68.7,327.4,66.8,326.4z M78.4,321.1
				c1.3-1.4,2-3.1,2-5.4s-0.7-4-2-5.4c-1.3-1.4-3-2-5.1-2c-2,0-3.7,0.7-5,2c-1.3,1.4-2,3.1-2,5.4s0.7,4,2,5.4c1.3,1.4,3,2,5,2
				C75.3,323.2,77,322.5,78.4,321.1z"/>
			<path class="st2" d="M95.5,326.4c-2-1-3.5-2.5-4.6-4.3c-1.1-1.8-1.6-3.9-1.6-6.3c0-2.3,0.5-4.4,1.6-6.3c1.1-1.8,2.6-3.3,4.5-4.3
				c1.9-1,4.1-1.6,6.6-1.6c2.3,0,4.4,0.5,6.1,1.4c1.8,0.9,3.1,2.3,4,4.1l-4.3,2.5c-0.7-1.1-1.5-1.9-2.6-2.5c-1-0.5-2.1-0.8-3.3-0.8
				c-2.1,0-3.8,0.7-5.1,2c-1.4,1.3-2,3.1-2,5.4c0,2.2,0.7,4,2,5.4c1.3,1.3,3.1,2,5.2,2c1.2,0,2.3-0.3,3.3-0.8c1-0.5,1.9-1.4,2.6-2.5
				l4.3,2.5c-0.9,1.8-2.3,3.1-4,4.1c-1.8,1-3.8,1.4-6.1,1.4C99.7,327.9,97.5,327.4,95.5,326.4z"/>
			<path class="st2" d="M134.1,306.2c1.8,1.7,2.8,4.2,2.8,7.6v13.9h-5.2v-2.9c-0.7,1-1.6,1.8-2.9,2.4c-1.3,0.5-2.8,0.8-4.5,0.8
				s-3.3-0.3-4.7-0.9c-1.3-0.6-2.4-1.4-3.1-2.5c-0.7-1.1-1.1-2.3-1.1-3.7c0-2.1,0.8-3.8,2.4-5.1c1.6-1.3,4.1-1.9,7.5-1.9h6.1v-0.4
				c0-1.7-0.5-2.9-1.5-3.8c-1-0.9-2.5-1.3-4.4-1.3c-1.3,0-2.6,0.2-3.9,0.6c-1.3,0.4-2.4,1-3.3,1.7l-2.2-4c1.2-0.9,2.7-1.7,4.5-2.2
				c1.7-0.5,3.6-0.8,5.5-0.8C129.6,303.7,132.2,304.5,134.1,306.2z M129,322.9c1.1-0.6,1.8-1.5,2.3-2.7v-2.8h-5.7
				c-3.2,0-4.8,1-4.8,3.1c0,1,0.4,1.8,1.2,2.4c0.8,0.6,1.9,0.9,3.3,0.9C126.7,323.9,127.9,323.6,129,322.9z"/>
			<path class="st2" d="M163.3,305.2c1.8,1,3.2,2.4,4.3,4.3c1,1.8,1.6,3.9,1.6,6.3s-0.5,4.5-1.6,6.4c-1,1.8-2.5,3.3-4.3,4.3
				c-1.8,1-3.9,1.5-6.2,1.5c-1.6,0-3.1-0.3-4.5-0.8c-1.3-0.6-2.5-1.4-3.4-2.5v3.1H144v-32.9h5.5v12.1c0.9-1,2.1-1.8,3.3-2.4
				c1.3-0.5,2.7-0.8,4.2-0.8C159.4,303.7,161.5,304.2,163.3,305.2z M161.5,321.1c1.3-1.4,2-3.1,2-5.4s-0.7-4-2-5.4c-1.3-1.4-3-2-5-2
				c-1.3,0-2.5,0.3-3.6,0.9c-1.1,0.6-1.9,1.5-2.5,2.6c-0.6,1.1-0.9,2.4-0.9,3.9c0,1.5,0.3,2.8,0.9,3.9c0.6,1.1,1.5,2,2.5,2.6
				c1.1,0.6,2.3,0.9,3.6,0.9C158.5,323.2,160.2,322.5,161.5,321.1z"/>
			<path class="st2" d="M197.3,303.9v23.7H192v-3c-0.9,1.1-2,1.9-3.3,2.5s-2.8,0.9-4.3,0.9c-3.2,0-5.7-0.9-7.5-2.6
				c-1.8-1.8-2.7-4.4-2.7-7.8v-13.5h5.5v12.8c0,2.1,0.5,3.7,1.4,4.8c1,1,2.3,1.6,4.1,1.6c2,0,3.6-0.6,4.7-1.8c1.2-1.2,1.8-3,1.8-5.3
				v-12H197.3z"/>
			<path class="st2" d="M204.6,294.7h5.5v32.9h-5.5V294.7z"/>
			<path class="st2" d="M234.5,306.2c1.8,1.7,2.8,4.2,2.8,7.6v13.9H232v-2.9c-0.7,1-1.6,1.8-2.9,2.4c-1.3,0.5-2.8,0.8-4.5,0.8
				c-1.8,0-3.3-0.3-4.7-0.9c-1.3-0.6-2.4-1.4-3.1-2.5c-0.7-1.1-1.1-2.3-1.1-3.7c0-2.1,0.8-3.8,2.4-5.1c1.6-1.3,4.1-1.9,7.5-1.9h6.1
				v-0.4c0-1.7-0.5-2.9-1.5-3.8c-1-0.9-2.5-1.3-4.4-1.3c-1.3,0-2.6,0.2-3.9,0.6c-1.3,0.4-2.4,1-3.3,1.7l-2.2-4
				c1.2-0.9,2.7-1.7,4.5-2.2c1.7-0.5,3.6-0.8,5.5-0.8C229.9,303.7,232.6,304.5,234.5,306.2z M229.4,322.9c1.1-0.6,1.8-1.5,2.3-2.7
				v-2.8H226c-3.2,0-4.8,1-4.8,3.1c0,1,0.4,1.8,1.2,2.4c0.8,0.6,1.9,0.9,3.3,0.9C227.1,323.9,228.3,323.6,229.4,322.9z"/>
			<path class="st2" d="M258,303.7v5.3c-0.5-0.1-0.9-0.1-1.3-0.1c-2.2,0-3.8,0.6-5.1,1.9s-1.8,3.1-1.8,5.4v11.5h-5.5v-23.7h5.3v3.5
				C251.2,304.9,254,303.7,258,303.7z"/>
			<path class="st2" d="M285.8,303.9l-11.1,25.6c-1,2.6-2.3,4.4-3.8,5.4c-1.5,1-3.3,1.6-5.4,1.6c-1.2,0-2.4-0.2-3.5-0.6
				c-1.2-0.4-2.1-0.9-2.8-1.6l2.2-4.1c0.5,0.5,1.2,0.9,1.9,1.2c0.7,0.3,1.5,0.4,2.2,0.4c1,0,1.8-0.3,2.4-0.8
				c0.6-0.5,1.2-1.3,1.8-2.5l0.4-0.9l-10.3-23.8h5.8l7.5,17.5l7.5-17.5H285.8z"/>
		</g>
	</g>
</g>
<g>
</g>
<g>
</g>
<g>
</g>
<g>
</g>
<g>
</g>
<g>
</g>
<g>
</g>
<g>
</g>
<g>
</g>
<g>
</g>
<g>
</g>
<g>
</g>
<g>
</g>
<g>
</g>
<g>
</g>
</svg>
