<?xml version="1.0" encoding="utf-8"?>
<!-- Generator: Adobe Illustrator 26.0.3, SVG Export Plug-In . SVG Version: 6.00 Build 0)  -->
<svg version="1.1" id="Layer_1" xmlns="http://www.w3.org/2000/svg" xmlns:xlink="http://www.w3.org/1999/xlink" x="0px" y="0px"
	 viewBox="0 0 32 18.5" style="enable-background:new 0 0 32 18.5;" xml:space="preserve">
<style type="text/css">
	.st0{fill:#8A5A91;}
	.st1{fill:#C4ACC8;}
	.st2{fill:#FFFFFF;}
</style>
<g>
	<polygon class="st0" points="32,12.5 32,0 0,0 0,18.5 26,18.5 	"/>
	<polygon class="st1" points="1.7,5.2 1.7,1.6 5.3,1.6 	"/>
	<g>
		<path class="st2" d="M9.4,8.4l-1,2.4H7.8l-1-2.4h0.6l0.7,1.8l0.8-1.8H9.4z"/>
		<path class="st2" d="M11.3,8.6c0.2,0.2,0.3,0.4,0.3,0.8v1.4h-0.5v-0.3c-0.1,0.1-0.2,0.2-0.3,0.2c-0.1,0.1-0.3,0.1-0.5,0.1
			c-0.2,0-0.3,0-0.5-0.1c-0.1-0.1-0.2-0.1-0.3-0.3c-0.1-0.1-0.1-0.2-0.1-0.4c0-0.2,0.1-0.4,0.2-0.5c0.2-0.1,0.4-0.2,0.7-0.2h0.6v0
			c0-0.2,0-0.3-0.1-0.4c-0.1-0.1-0.2-0.1-0.4-0.1c-0.1,0-0.3,0-0.4,0.1C9.9,8.9,9.8,9,9.7,9L9.5,8.6C9.6,8.5,9.8,8.5,10,8.4
			c0.2-0.1,0.4-0.1,0.6-0.1C10.9,8.3,11.1,8.4,11.3,8.6z M10.8,10.3c0.1-0.1,0.2-0.2,0.2-0.3V9.7h-0.6C10.2,9.7,10,9.8,10,10
			c0,0.1,0,0.2,0.1,0.2c0.1,0.1,0.2,0.1,0.3,0.1C10.6,10.4,10.7,10.3,10.8,10.3z"/>
		<path class="st2" d="M13.7,8.3v0.5c0,0-0.1,0-0.1,0c-0.2,0-0.4,0.1-0.5,0.2c-0.1,0.1-0.2,0.3-0.2,0.5v1.1h-0.6V8.4h0.5v0.3
			C13,8.5,13.3,8.3,13.7,8.3z"/>
		<path class="st2" d="M14.2,7.9c-0.1-0.1-0.1-0.1-0.1-0.2c0-0.1,0-0.2,0.1-0.2c0.1-0.1,0.2-0.1,0.3-0.1c0.1,0,0.2,0,0.3,0.1
			c0.1,0.1,0.1,0.1,0.1,0.2c0,0.1,0,0.2-0.1,0.2C14.6,7.9,14.5,8,14.4,8C14.3,8,14.3,7.9,14.2,7.9z M14.2,8.4h0.6v2.4h-0.6V8.4z"/>
		<path class="st2" d="M17.1,8.6c0.2,0.2,0.3,0.4,0.3,0.8v1.4h-0.5v-0.3c-0.1,0.1-0.2,0.2-0.3,0.2c-0.1,0.1-0.3,0.1-0.5,0.1
			c-0.2,0-0.3,0-0.5-0.1c-0.1-0.1-0.2-0.1-0.3-0.3c-0.1-0.1-0.1-0.2-0.1-0.4c0-0.2,0.1-0.4,0.2-0.5c0.2-0.1,0.4-0.2,0.7-0.2h0.6v0
			c0-0.2,0-0.3-0.1-0.4c-0.1-0.1-0.2-0.1-0.4-0.1c-0.1,0-0.3,0-0.4,0.1c-0.1,0-0.2,0.1-0.3,0.2l-0.2-0.4c0.1-0.1,0.3-0.2,0.4-0.2
			c0.2-0.1,0.4-0.1,0.6-0.1C16.7,8.3,17,8.4,17.1,8.6z M16.6,10.3c0.1-0.1,0.2-0.2,0.2-0.3V9.7h-0.6c-0.3,0-0.5,0.1-0.5,0.3
			c0,0.1,0,0.2,0.1,0.2c0.1,0.1,0.2,0.1,0.3,0.1C16.4,10.4,16.5,10.3,16.6,10.3z"/>
		<path class="st2" d="M20.1,8.5c0.2,0.1,0.3,0.2,0.4,0.4c0.1,0.2,0.2,0.4,0.2,0.6s-0.1,0.5-0.2,0.6c-0.1,0.2-0.2,0.3-0.4,0.4
			c-0.2,0.1-0.4,0.2-0.6,0.2c-0.2,0-0.3,0-0.4-0.1c-0.1-0.1-0.2-0.1-0.3-0.3v0.3h-0.5V7.4h0.6v1.2c0.1-0.1,0.2-0.2,0.3-0.2
			c0.1-0.1,0.3-0.1,0.4-0.1C19.7,8.3,19.9,8.4,20.1,8.5z M19.9,10.1c0.1-0.1,0.2-0.3,0.2-0.5S20,9.2,19.9,9
			c-0.1-0.1-0.3-0.2-0.5-0.2c-0.1,0-0.3,0-0.4,0.1c-0.1,0.1-0.2,0.1-0.3,0.3c-0.1,0.1-0.1,0.2-0.1,0.4c0,0.1,0,0.3,0.1,0.4
			c0.1,0.1,0.1,0.2,0.3,0.3c0.1,0.1,0.2,0.1,0.4,0.1C19.6,10.3,19.8,10.2,19.9,10.1z"/>
		<path class="st2" d="M21.2,7.4h0.6v3.3h-0.6V7.4z"/>
		<path class="st2" d="M24.7,9.7h-1.9c0,0.2,0.1,0.3,0.3,0.4c0.1,0.1,0.3,0.2,0.5,0.2c0.3,0,0.5-0.1,0.6-0.3l0.3,0.3
			c-0.1,0.1-0.2,0.2-0.4,0.3c-0.2,0.1-0.3,0.1-0.6,0.1c-0.3,0-0.5-0.1-0.7-0.2c-0.2-0.1-0.4-0.2-0.5-0.4c-0.1-0.2-0.2-0.4-0.2-0.6
			c0-0.2,0.1-0.4,0.2-0.6c0.1-0.2,0.3-0.3,0.4-0.4c0.2-0.1,0.4-0.2,0.6-0.2c0.2,0,0.4,0.1,0.6,0.2c0.2,0.1,0.3,0.2,0.4,0.4
			c0.1,0.2,0.2,0.4,0.2,0.6C24.7,9.6,24.7,9.7,24.7,9.7z M23,8.9c-0.1,0.1-0.2,0.2-0.2,0.4h1.3c0-0.2-0.1-0.3-0.2-0.4
			c-0.1-0.1-0.3-0.2-0.5-0.2C23.3,8.8,23.2,8.8,23,8.9z"/>
	</g>
</g>
<g>
</g>
<g>
</g>
<g>
</g>
<g>
</g>
<g>
</g>
<g>
</g>
<g>
</g>
<g>
</g>
<g>
</g>
<g>
</g>
<g>
</g>
<g>
</g>
<g>
</g>
<g>
</g>
<g>
</g>
</svg>
