<svg id="Layer_1" data-name="Layer 1" xmlns="http://www.w3.org/2000/svg" viewBox="0 0 2160 1246.4"><defs><style>.cls-1{fill:#982468;}.cls-2{fill:#c4acc8;}.cls-3{fill:#fff;}</style></defs><polygon class="cls-1" points="2160 840.6 2160 0 0 0 0 1246.4 1754.2 1246.4 2160 840.6"/><polygon class="cls-2" points="116.9 349.8 116.9 107.8 358.9 107.8 116.9 349.8"/><path class="cls-3" d="M314.18,585.31a92.1,92.1,0,0,1-36-34.53q-13-22-13-49.71t13.16-49.71a93.13,93.13,0,0,1,36.14-34.53q23-12.49,51.46-12.5,23.12,0,42.19,8.07a86,86,0,0,1,32.25,23.37L417.76,457q-20.42-22-50.25-22-19.33,0-34.66,8.46a61,61,0,0,0-23.91,23.51q-8.61,15.06-8.6,34.13t8.6,34.13a60.94,60.94,0,0,0,23.91,23.51q15.31,8.46,34.66,8.46,29.83,0,50.25-22.3l22.58,21.5A86,86,0,0,1,408,589.75a108.43,108.43,0,0,1-42.33,8.06Q337.15,597.81,314.18,585.31Z"/><path class="cls-3" d="M490.59,587.6a68.54,68.54,0,0,1-27.28-26.2q-9.81-16.8-9.81-38t9.81-37.88a68.83,68.83,0,0,1,27.28-26.07q17.46-9.41,39.23-9.4,22,0,39.5,9.4a68.87,68.87,0,0,1,27.27,26.07q9.81,16.67,9.81,37.88t-9.81,38a68.58,68.58,0,0,1-27.27,26.2q-17.48,9.4-39.5,9.4Q508.05,597,490.59,587.6Zm69.86-31.71q12.09-12.36,12.09-32.52t-12.09-32.51q-12.09-12.36-30.63-12.36t-30.5,12.36q-12,12.36-12,32.51t12,32.52q12,12.36,30.5,12.36T560.45,555.89Z"/><path class="cls-3" d="M862.75,465.74q15.86,15.72,15.85,47.15v82.23H845V517.19q0-18.8-8.33-28.34t-23.91-9.54q-16.93,0-27.14,11.15T775.42,522.3v72.82H741.83V517.19q0-18.8-8.33-28.34t-23.92-9.54q-17.19,0-27.27,11t-10.08,32v72.82H638.64V451.63h32V469.9a52.25,52.25,0,0,1,20.15-14.78,68.49,68.49,0,0,1,26.87-5.1q16.13,0,28.62,6A46.42,46.42,0,0,1,766,473.93a59.87,59.87,0,0,1,22.84-17.6,74.2,74.2,0,0,1,30.9-6.31Q846.9,450,862.75,465.74Z"/><path class="cls-3" d="M1145.7,465.74q15.85,15.72,15.85,47.15v82.23H1128V517.19q0-18.8-8.33-28.34t-23.92-9.54q-16.93,0-27.14,11.15t-10.21,31.84v72.82h-33.59V517.19q0-18.8-8.33-28.34t-23.92-9.54q-17.19,0-27.27,11t-10.08,32v72.82H921.59V451.63h32V469.9a52.32,52.32,0,0,1,20.15-14.78,68.54,68.54,0,0,1,26.88-5.1q16.11,0,28.61,6A46.51,46.51,0,0,1,1049,473.93a59.83,59.83,0,0,1,22.83-17.6,74.21,74.21,0,0,1,30.91-6.31Q1129.84,450,1145.7,465.74Z"/><path class="cls-3" d="M1343.47,451.63V595.12h-32V576.85a53.37,53.37,0,0,1-20.15,14.91,64.72,64.72,0,0,1-26.06,5.24q-28.76,0-45.28-16t-16.53-47.42v-82h33.59V529q0,19.35,8.73,28.88t24.86,9.54q18,0,28.62-11.15t10.61-32.11V451.63Z"/><path class="cls-3" d="M1512.49,465.87q16.4,15.86,16.39,47v82.23h-33.59V517.19q0-18.8-8.86-28.34t-25.26-9.54q-18.54,0-29.29,11.15t-10.75,32.11v72.55h-33.59V451.63h32v18.54a52.47,52.47,0,0,1,21-15.05A75.44,75.44,0,0,1,1469,450Q1496.09,450,1512.49,465.87Z"/><path class="cls-3" d="M1573.22,422.2a19.81,19.81,0,0,1,0-28.75,21.58,21.58,0,0,1,15.32-5.78,22.19,22.19,0,0,1,15.31,5.51A17.77,17.77,0,0,1,1610,407a20.29,20.29,0,0,1-6,14.92q-6,6-15.45,6A21.53,21.53,0,0,1,1573.22,422.2Zm-1.61,29.43h33.59V595.12h-33.59Z"/><path class="cls-3" d="M1735.52,587.33a39.6,39.6,0,0,1-14.38,7.25,64.44,64.44,0,0,1-17.87,2.42q-23.64,0-36.54-12.36t-12.9-36V479.57h-23.65V452.7h23.65V419.92h33.59V452.7h38.42v26.87h-38.42v68.26q0,10.47,5.1,16t14.78,5.5q11.29,0,18.81-5.91Z"/><path class="cls-3" d="M1894.86,451.63l-67.17,155q-9.42,23.39-22.84,32.92t-32.52,9.54a67,67,0,0,1-21.23-3.49,47,47,0,0,1-17.19-9.68l13.43-24.72a36.7,36.7,0,0,0,11.42,7.26,35,35,0,0,0,13.3,2.69q8.87,0,14.65-4.57t10.61-15.32l2.42-5.64-62.61-144h34.93l45.15,106.14,45.41-106.14Z"/><path class="cls-3" d="M408.89,852.54q-20.28-6.16-32.11-16.39L388.88,809q11.55,9.15,28.34,14.92A103.15,103.15,0,0,0,451,829.7q21,0,31.3-6.71t10.35-17.74a17.18,17.18,0,0,0-5.78-13.3,40.73,40.73,0,0,0-14.64-8.2q-8.88-3-24.19-6.71a282.17,282.17,0,0,1-34.8-10.21,57.44,57.44,0,0,1-22.84-16q-9.54-10.89-9.54-29.43a50.27,50.27,0,0,1,8.47-28.35q8.46-12.75,25.53-20.28t41.78-7.53a135.32,135.32,0,0,1,33.86,4.3,93.82,93.82,0,0,1,28.75,12.36l-11,27.14a109.55,109.55,0,0,0-25.79-11,96.85,96.85,0,0,0-26.07-3.76q-20.68,0-30.77,7T415.48,719.8A16.73,16.73,0,0,0,421.26,733,41.77,41.77,0,0,0,435.9,741q8.87,3,24.18,6.72a254.32,254.32,0,0,1,34.4,10.07,59.08,59.08,0,0,1,23,16q9.54,10.76,9.54,29a49.59,49.59,0,0,1-8.46,28.22q-8.46,12.63-25.66,20.15T451,858.73A143.59,143.59,0,0,1,408.89,852.54Z"/><path class="cls-3" d="M644.69,848.24a39.38,39.38,0,0,1-14.38,7.26,64.82,64.82,0,0,1-17.87,2.42q-23.64,0-36.54-12.36t-12.9-36V740.49H539.35V713.62H563V680.84h33.59v32.78H635v26.87H596.59v68.25q0,10.49,5.1,16t14.78,5.51q11.29,0,18.81-5.91Z"/><path class="cls-3" d="M775.68,726.12q16.8,15.18,16.8,45.81V856H760.77V838.57A39.14,39.14,0,0,1,743.17,853q-11.43,5-27.54,5t-28.22-5.51q-12.09-5.5-18.67-15.32a38.83,38.83,0,0,1-6.59-22.17q0-19.33,14.38-31t45.28-11.69h37.08v-2.15q0-15-9-23.11t-26.74-8.06a77.1,77.1,0,0,0-23.78,3.76,58.59,58.59,0,0,0-19.75,10.48l-13.17-24.45a81.72,81.72,0,0,1,27.14-13.17,121,121,0,0,1,33.59-4.57Q758.89,710.93,775.68,726.12ZM745.05,827.69a31.43,31.43,0,0,0,13.84-16.53V794.5H724.23q-29,0-29,19.08a17.11,17.11,0,0,0,7.25,14.51q7.26,5.38,20.15,5.38A43.4,43.4,0,0,0,745.05,827.69Z"/><path class="cls-3" d="M960.42,726.79q16.4,15.86,16.39,47V856H943.23V778.11q0-18.81-8.87-28.35t-25.26-9.54q-18.54,0-29.29,11.15t-10.75,32.12V856H835.47V712.55h32v18.54a52.44,52.44,0,0,1,21-15.05,75.48,75.48,0,0,1,28.48-5.11Q944,710.93,960.42,726.79Z"/><path class="cls-3" d="M1161.42,656.65V856h-32.25V837.5a51.89,51.89,0,0,1-20.56,15.31,69.46,69.46,0,0,1-27,5.11q-20.7,0-37.22-9.14a65.53,65.53,0,0,1-25.93-25.93q-9.4-16.79-9.4-38.56t9.4-38.42a65.85,65.85,0,0,1,25.93-25.8q16.53-9.14,37.22-9.14a68.28,68.28,0,0,1,26.06,4.84,52.46,52.46,0,0,1,20.16,14.51V656.65Zm-54,167a39.77,39.77,0,0,0,15.32-15.72q5.64-10.22,5.64-23.65t-5.64-23.64a39.77,39.77,0,0,0-15.32-15.72,45.74,45.74,0,0,0-43.53,0,39.74,39.74,0,0,0-15.31,15.72q-5.65,10.2-5.65,23.64t5.65,23.65a39.74,39.74,0,0,0,15.31,15.72,45.74,45.74,0,0,0,43.53,0Z"/><path class="cls-3" d="M1308.8,726.12q16.8,15.18,16.8,45.81V856h-31.71V838.57a39.14,39.14,0,0,1-17.6,14.38q-11.43,5-27.54,5t-28.22-5.51q-12.09-5.5-18.67-15.32a38.75,38.75,0,0,1-6.59-22.17q0-19.33,14.38-31t45.28-11.69H1292v-2.15q0-15-9-23.11t-26.74-8.06a77.1,77.1,0,0,0-23.78,3.76,58.59,58.59,0,0,0-19.75,10.48l-13.17-24.45a81.72,81.72,0,0,1,27.14-13.17,121,121,0,0,1,33.59-4.57Q1292,710.93,1308.8,726.12Zm-30.63,101.57A31.43,31.43,0,0,0,1292,811.16V794.5h-34.67q-29,0-29,19.08a17.12,17.12,0,0,0,7.26,14.51q7.26,5.38,20.15,5.38A43.4,43.4,0,0,0,1278.17,827.69Z"/><path class="cls-3" d="M1451.62,710.93v32a42.35,42.35,0,0,0-7.79-.81q-19.62,0-30.63,11.42t-11,32.92V856h-33.59V712.55h32v21Q1415.08,710.94,1451.62,710.93Z"/><path class="cls-3" d="M1619.3,656.65V856h-32.25V837.5a51.85,51.85,0,0,1-20.55,15.31,69.55,69.55,0,0,1-27,5.11q-20.68,0-37.21-9.14a65.56,65.56,0,0,1-25.94-25.93q-9.4-16.79-9.4-38.56t9.4-38.42a65.87,65.87,0,0,1,25.94-25.8q16.52-9.14,37.21-9.14a68.33,68.33,0,0,1,26.07,4.84,52.35,52.35,0,0,1,20.15,14.51V656.65Zm-54,167a39.74,39.74,0,0,0,15.31-15.72q5.65-10.22,5.65-23.65t-5.65-23.64a39.74,39.74,0,0,0-15.31-15.72,45.74,45.74,0,0,0-43.53,0,39.77,39.77,0,0,0-15.32,15.72q-5.64,10.2-5.64,23.64t5.64,23.65a39.77,39.77,0,0,0,15.32,15.72,45.74,45.74,0,0,0,43.53,0Z"/><path class="cls-3" d="M1673.58,853.35q-16.66-4.56-26.6-11.55l12.89-25.53a82.7,82.7,0,0,0,23.25,10.34,96.44,96.44,0,0,0,26.73,3.9q30.11,0,30.1-15.85,0-7.53-7.66-10.48t-24.58-5.65a198.87,198.87,0,0,1-28.89-6.18,44.22,44.22,0,0,1-19.35-12.22q-8.19-8.73-8.19-24.32,0-20.41,17.06-32.65t46.08-12.23a133,133,0,0,1,29.56,3.36q14.77,3.36,24.19,9l-12.9,25.53q-18.29-10.74-41.12-10.75-14.78,0-22.43,4.44t-7.66,11.69q0,8.06,8.19,11.42t25.4,6.31a195.82,195.82,0,0,1,28.21,6.18,44.22,44.22,0,0,1,19,11.82q7.92,8.34,7.92,23.65,0,20.16-17.46,32.25t-47.56,12.09A128.65,128.65,0,0,1,1673.58,853.35Z"/></svg>