<svg id="Layer_1" data-name="Layer 1" xmlns="http://www.w3.org/2000/svg" viewBox="0 0 2160 1246.4"><defs><style>.cls-1{fill:#441d4f;}.cls-2{fill:#a18ea7;}.cls-3{fill:#fff;}</style></defs><polygon class="cls-1" points="2160 840.6 2160 0 0 0 0 1246.4 1754.2 1246.4 2160 840.6"/><polygon class="cls-2" points="101.8 344.3 101.8 102.3 343.8 102.3 101.8 344.3"/><path class="cls-3" d="M711.59,692.73q-20.4-6.21-32.27-16.48L691.47,649q11.61,9.18,28.49,15a103.51,103.51,0,0,0,33.88,5.81q21.06,0,31.46-6.75t10.39-17.83a17.29,17.29,0,0,0-5.8-13.36,40.85,40.85,0,0,0-14.72-8.23q-8.91-3-24.3-6.75-21.6-5.13-35-10.26A57.48,57.48,0,0,1,693,590.53q-9.6-10.93-9.59-29.56a50.45,50.45,0,0,1,8.51-28.49q8.5-12.83,25.65-20.38t42-7.57a135.62,135.62,0,0,1,34,4.33,93.79,93.79,0,0,1,28.89,12.42l-11.07,27.26a109.59,109.59,0,0,0-25.92-11.06,97,97,0,0,0-26.19-3.78q-20.79,0-30.91,7T718.2,559.35A16.83,16.83,0,0,0,724,572.58a41.83,41.83,0,0,0,14.71,8.1q8.91,3,24.3,6.75a254.33,254.33,0,0,1,34.56,10.12,59.29,59.29,0,0,1,23.09,16.07q9.57,10.8,9.58,29.16a49.74,49.74,0,0,1-8.5,28.34q-8.5,12.71-25.79,20.25t-42.12,7.57A144.44,144.44,0,0,1,711.59,692.73Z"/><path class="cls-3" d="M948.51,688.41a39.71,39.71,0,0,1-14.44,7.29,65.09,65.09,0,0,1-18,2.42q-23.76,0-36.72-12.42t-13-36.17V580.14H842.67v-27h23.76V520.2h33.75v32.94h38.61v27H900.18v68.58q0,10.53,5.13,16.06t14.85,5.54q11.34,0,18.9-6Z"/><path class="cls-3" d="M1115.91,552.06V696.24h-32.13V677.87a53.62,53.62,0,0,1-20.25,15,65.15,65.15,0,0,1-26.19,5.26q-28.89,0-45.5-16.06t-16.6-47.65V552.06H1009v77.76q0,19.44,8.77,29t25,9.59q18.09,0,28.75-11.21T1082.16,625V552.06Z"/><path class="cls-3" d="M1301.4,495.9V696.24H1269V677.61A52.12,52.12,0,0,1,1248.34,693a69.72,69.72,0,0,1-27.13,5.13q-20.79,0-37.4-9.17a66,66,0,0,1-26-26.06q-9.45-16.87-9.45-38.74t9.45-38.62a66.23,66.23,0,0,1,26-25.91q16.61-9.18,37.4-9.18a68.73,68.73,0,0,1,26.19,4.85,52.78,52.78,0,0,1,20.25,14.58v-74Zm-54.27,167.8a40,40,0,0,0,15.39-15.79q5.67-10.26,5.67-23.76t-5.67-23.76a40,40,0,0,0-15.39-15.8,46,46,0,0,0-43.74,0,40,40,0,0,0-15.39,15.8q-5.67,10.26-5.67,23.76t5.67,23.76a40,40,0,0,0,15.39,15.79,45.94,45.94,0,0,0,43.74,0Z"/><path class="cls-3" d="M1480.68,552.06l-67.5,155.79q-9.45,23.48-23,33.07t-32.67,9.58a67.05,67.05,0,0,1-21.33-3.51,47.27,47.27,0,0,1-17.28-9.71l13.5-24.84a37.08,37.08,0,0,0,11.47,7.29,35.31,35.31,0,0,0,13.37,2.7q8.91,0,14.71-4.6t10.67-15.38l2.43-5.67-62.91-144.72h35.1l45.36,106.64,45.63-106.64Z"/></svg>