<?xml version="1.0" encoding="utf-8"?>
<!-- Generator: Adobe Illustrator 26.0.3, SVG Export Plug-In . SVG Version: 6.00 Build 0)  -->
<svg version="1.1" id="Layer_1" xmlns="http://www.w3.org/2000/svg" xmlns:xlink="http://www.w3.org/1999/xlink" x="0px" y="0px"
	 viewBox="0 0 2160 1246.4" style="enable-background:new 0 0 2160 1246.4;" xml:space="preserve">
<style type="text/css">
	.st0{fill:#8A5A91;}
	.st1{fill:#C4ACC8;}
	.st2{fill:#FFFFFF;}
</style>
<g>
	<polygon class="st0" points="2160,840.6 2160,0 0,0 0,1246.4 1754.2,1246.4 	"/>
	<polygon class="st1" points="116.9,349.8 116.9,107.8 358.9,107.8 	"/>
	<g>
		<path class="st2" d="M630.7,563.8l-68.6,160.1h-38.7l-68.6-160.1h39l49.8,118.7l51.3-118.7H630.7z"/>
		<path class="st2" d="M764.3,578.9c12.5,11.3,18.7,28.3,18.7,51.1v93.8h-35.4v-19.5c-4.6,7-11.1,12.3-19.6,16
			c-8.5,3.7-18.7,5.5-30.7,5.5s-22.5-2-31.5-6.1c-9-4.1-15.9-9.8-20.8-17.1c-4.9-7.3-7.3-15.5-7.3-24.7c0-14.4,5.3-25.9,16-34.6
			c10.7-8.7,27.5-13,50.5-13h41.4v-2.4c0-11.2-3.3-19.8-10-25.8c-6.7-6-16.6-9-29.8-9c-9,0-17.8,1.4-26.5,4.2
			c-8.7,2.8-16,6.7-22,11.7l-14.7-27.3c8.4-6.4,18.5-11.3,30.3-14.7c11.8-3.4,24.3-5.1,37.5-5.1C733.7,562,751.8,567.6,764.3,578.9z
			 M730.1,692.2c7.3-4.3,12.4-10.4,15.4-18.4v-18.6h-38.7c-21.6,0-32.4,7.1-32.4,21.3c0,6.8,2.7,12.2,8.1,16.2c5.4,4,12.9,6,22.5,6
			C714.4,698.7,722.8,696.5,730.1,692.2z"/>
		<path class="st2" d="M923.6,562v35.7c-3.2-0.6-6.1-0.9-8.7-0.9c-14.6,0-26,4.2-34.2,12.7c-8.2,8.5-12.3,20.7-12.3,36.7v77.6h-37.5
			V563.8h35.7v23.4C877.4,570.4,896.4,562,923.6,562z"/>
		<path class="st2" d="M957.1,531c-4.6-4.3-6.9-9.6-6.9-16c0-6.4,2.3-11.7,6.9-16c4.6-4.3,10.3-6.4,17.1-6.4
			c6.8,0,12.5,2.1,17.1,6.1c4.6,4.1,6.9,9.2,6.9,15.4c0,6.6-2.2,12.1-6.7,16.6c-4.5,4.5-10.2,6.7-17.2,6.7
			C967.4,537.4,961.7,535.3,957.1,531z M955.3,563.8h37.5v160.1h-37.5V563.8z"/>
		<path class="st2" d="M1157.2,578.9c12.5,11.3,18.7,28.3,18.7,51.1v93.8h-35.4v-19.5c-4.6,7-11.1,12.3-19.6,16
			c-8.5,3.7-18.7,5.5-30.7,5.5c-12,0-22.5-2-31.5-6.1c-9-4.1-15.9-9.8-20.8-17.1c-4.9-7.3-7.3-15.5-7.3-24.7
			c0-14.4,5.3-25.9,16-34.6c10.7-8.7,27.5-13,50.5-13h41.4v-2.4c0-11.2-3.3-19.8-10-25.8c-6.7-6-16.6-9-29.8-9
			c-9,0-17.8,1.4-26.5,4.2c-8.7,2.8-16,6.7-22,11.7l-14.7-27.3c8.4-6.4,18.5-11.3,30.3-14.7c11.8-3.4,24.3-5.1,37.5-5.1
			C1126.7,562,1144.7,567.6,1157.2,578.9z M1123.1,692.2c7.3-4.3,12.4-10.4,15.4-18.4v-18.6h-38.7c-21.6,0-32.4,7.1-32.4,21.3
			c0,6.8,2.7,12.2,8.1,16.2c5.4,4,12.9,6,22.5,6C1107.4,698.7,1115.8,696.5,1123.1,692.2z"/>
		<path class="st2" d="M1354.5,572.2c12.3,6.8,21.9,16.4,28.9,28.8c7,12.4,10.5,26.7,10.5,42.9c0,16.2-3.5,30.5-10.5,43
			c-7,12.5-16.6,22.1-28.9,28.9c-12.3,6.8-26.2,10.2-41.8,10.2c-11,0-21-1.9-30.1-5.7c-9.1-3.8-16.7-9.5-22.9-17.1v20.7h-35.7V501.4
			h37.5v81.8c6.4-7,13.9-12.3,22.6-15.9c8.7-3.6,18.2-5.4,28.6-5.4C1328.2,562,1342.2,565.4,1354.5,572.2z M1342.5,680.1
			c8.9-9.2,13.3-21.3,13.3-36.3c0-15-4.5-27.1-13.3-36.3c-8.9-9.2-20.2-13.8-34-13.8c-9,0-17.1,2.1-24.3,6.1
			c-7.2,4.1-12.9,9.9-17.1,17.5c-4.2,7.6-6.3,16.4-6.3,26.4c0,10,2.1,18.8,6.3,26.4c4.2,7.6,9.9,13.4,17.1,17.5
			c7.2,4.1,15.3,6.1,24.3,6.1C1322.2,693.9,1333.6,689.3,1342.5,680.1z"/>
		<path class="st2" d="M1429.6,501.4h37.5v222.4h-37.5V501.4z"/>
		<path class="st2" d="M1666.1,655.8h-125.6c2.2,11.8,7.9,21.1,17.2,28c9.3,6.9,20.8,10.3,34.6,10.3c17.6,0,32.1-5.8,43.5-17.4
			l20.1,23.1c-7.2,8.6-16.3,15.1-27.3,19.5c-11,4.4-23.4,6.6-37.2,6.6c-17.6,0-33.1-3.5-46.5-10.5c-13.4-7-23.7-16.7-31-29.2
			c-7.3-12.5-10.9-26.6-10.9-42.4c0-15.6,3.6-29.6,10.6-42.1c7.1-12.5,16.9-22.2,29.5-29.2c12.6-7,26.8-10.5,42.6-10.5
			c15.6,0,29.5,3.4,41.8,10.3c12.3,6.9,21.9,16.6,28.8,29.1c6.9,12.5,10.3,26.9,10.3,43.3C1666.6,647.3,1666.4,651,1666.1,655.8z
			 M1555.3,602.6c-8.3,7.1-13.3,16.5-15.1,28.3h90.8c-1.6-11.6-6.5-21-14.7-28.2s-18.4-10.8-30.6-10.8
			C1573.7,592,1563.6,595.5,1555.3,602.6z"/>
	</g>
</g>
</svg>
