<svg id="Layer_1" data-name="Layer 1" xmlns="http://www.w3.org/2000/svg" viewBox="0 0 2160 1246.4"><defs><style>.cls-1{fill:#8a5a91;}.cls-2{fill:#d0c6d3;}.cls-3{fill:#fff;}</style></defs><polygon class="cls-1" points="2160 840.6 2160 0 0 0 0 1246.4 1754.2 1246.4 2160 840.6"/><polygon class="cls-2" points="101.8 344.3 101.8 102.3 343.8 102.3 101.8 344.3"/><path class="cls-3" d="M718.48,537.48l-82.35,189H601.57L519,537.48H557l62.91,145.8,63.45-145.8Z"/><path class="cls-3" d="M828.23,595.93q16.88,15.26,16.87,46v84.51H813.25V708.93a39.32,39.32,0,0,1-17.69,14.44q-11.47,5-27.68,5t-28.35-5.54a43.85,43.85,0,0,1-18.76-15.39,39,39,0,0,1-6.62-22.27q0-19.44,14.45-31.19t45.49-11.74h37.26v-2.16q0-15.12-9-23.22t-26.87-8.1a77.8,77.8,0,0,0-23.89,3.77,58.77,58.77,0,0,0-19.84,10.54l-13.23-24.58a81.91,81.91,0,0,1,27.27-13.22,121.23,121.23,0,0,1,33.75-4.59Q811.35,580.68,828.23,595.93ZM797.45,698a31.57,31.57,0,0,0,13.9-16.6V664.65H776.52q-29.16,0-29.16,19.17a17.21,17.21,0,0,0,7.29,14.58q7.3,5.4,20.25,5.4A43.6,43.6,0,0,0,797.45,698Z"/><path class="cls-3" d="M971.73,580.68v32.13a42.92,42.92,0,0,0-7.83-.82q-19.71,0-30.78,11.48t-11.07,33.08v69.93H888.3V582.3h32.13v21.06Q935,580.68,971.73,580.68Z"/><path class="cls-3" d="M1002,552.73a19.91,19.91,0,0,1,0-28.89,21.65,21.65,0,0,1,15.39-5.81,22.32,22.32,0,0,1,15.39,5.54,17.88,17.88,0,0,1,6.21,13.91,20.35,20.35,0,0,1-6.08,15q-6.08,6.07-15.52,6.07A21.64,21.64,0,0,1,1002,552.73Zm-1.62,29.57h33.75V726.48h-33.75Z"/><path class="cls-3" d="M1182.2,595.93q16.86,15.26,16.87,46v84.51h-31.86V708.93a39.24,39.24,0,0,1-17.68,14.44q-11.49,5-27.68,5t-28.35-5.54a43.79,43.79,0,0,1-18.76-15.39,39,39,0,0,1-6.62-22.27q0-19.44,14.45-31.19t45.49-11.74h37.26v-2.16q0-15.12-9-23.22t-26.87-8.1a77.8,77.8,0,0,0-23.89,3.77,58.92,58.92,0,0,0-19.85,10.54l-13.23-24.58a82.1,82.1,0,0,1,27.27-13.22,121.34,121.34,0,0,1,33.75-4.59Q1165.32,580.68,1182.2,595.93ZM1151.42,698a31.57,31.57,0,0,0,13.9-16.6V664.65h-34.83q-29.16,0-29.16,19.17a17.21,17.21,0,0,0,7.29,14.58q7.29,5.4,20.25,5.4A43.63,43.63,0,0,0,1151.42,698Z"/><path class="cls-3" d="M1359.86,589.86a66.19,66.19,0,0,1,26.05,25.92q9.45,16.74,9.45,38.61t-9.45,38.74a66,66,0,0,1-26.05,26.06q-16.6,9.18-37.67,9.18a69.87,69.87,0,0,1-27.13-5.13,52.16,52.16,0,0,1-20.66-15.39v18.63h-32.13V526.14H1276v73.71a56.84,56.84,0,0,1,20.39-14.32,67,67,0,0,1,25.78-4.85Q1343.25,580.68,1359.86,589.86Zm-10.8,97.2q12-12.42,12-32.67t-12-32.67q-12-12.42-30.65-12.42a43.4,43.4,0,0,0-21.87,5.53,40,40,0,0,0-15.39,15.8q-5.67,10.26-5.67,23.76t5.67,23.76a40,40,0,0,0,15.39,15.79,43.41,43.41,0,0,0,21.87,5.54Q1337,699.48,1349.06,687.06Z"/><path class="cls-3" d="M1427.49,526.14h33.75V726.48h-33.75Z"/><path class="cls-3" d="M1640.51,665.19H1527.38a39.21,39.21,0,0,0,15.53,25.24q12.55,9.32,31.18,9.31,23.76,0,39.15-15.65l18.09,20.79a61,61,0,0,1-24.57,17.55q-14.85,5.94-33.48,5.94-23.76,0-41.85-9.45a68.06,68.06,0,0,1-27.94-26.33q-9.85-16.87-9.86-38.2,0-21.06,9.59-37.94a68,68,0,0,1,26.59-26.32q17-9.45,38.34-9.45,21.06,0,37.67,9.31a66,66,0,0,1,25.92,26.19q9.32,16.88,9.31,39Q1641.05,658.71,1640.51,665.19Zm-99.76-47.93q-11.2,9.59-13.64,25.52h81.81q-2.16-15.66-13.23-25.38t-27.54-9.72Q1551.95,607.68,1540.75,617.26Z"/></svg>