<?xml version="1.0" encoding="utf-8"?>
<!-- Generator: Adobe Illustrator 26.0.3, SVG Export Plug-In . SVG Version: 6.00 Build 0)  -->
<svg version="1.1" id="Layer_1" xmlns="http://www.w3.org/2000/svg" xmlns:xlink="http://www.w3.org/1999/xlink" x="0px" y="0px"
	 viewBox="0 0 2160 1246.4" style="enable-background:new 0 0 2160 1246.4;" xml:space="preserve">
<style type="text/css">
	.st0{fill:#441D4F;}
	.st1{fill:#A18EA7;}
	.st2{fill:#FFFFFF;}
</style>
<g>
	<polygon class="st0" points="2160,840.6 2160,0 0,0 0,1246.4 1754.2,1246.4 	"/>
	<polygon class="st1" points="101.8,344.3 101.8,102.3 343.8,102.3 	"/>
	<g>
		<path class="st2" d="M671.2,720.8c-12.4-3.4-22.3-7.7-29.7-12.9l14.4-28.5c7.2,4.8,15.8,8.6,25.9,11.5c10.1,2.9,20,4.3,29.8,4.3
			c22.4,0,33.6-5.9,33.6-17.7c0-5.6-2.8-9.5-8.5-11.7c-5.7-2.2-14.8-4.3-27.4-6.3c-13.2-2-23.9-4.3-32.2-6.9
			c-8.3-2.6-15.5-7.1-21.6-13.6c-6.1-6.5-9.1-15.5-9.1-27.1c0-15.2,6.3-27.3,19-36.4c12.7-9.1,29.8-13.6,51.4-13.6
			c11,0,22,1.3,33,3.7c11,2.5,20,5.8,27,10l-14.4,28.5c-13.6-8-28.9-12-45.9-12c-11,0-19.3,1.6-25,4.9c-5.7,3.3-8.5,7.6-8.5,13
			c0,6,3,10.2,9.1,12.7c6.1,2.5,15.5,4.8,28.3,7c12.8,2,23.3,4.3,31.5,6.9c8.2,2.6,15.2,7,21.1,13.2c5.9,6.2,8.8,15,8.8,26.4
			c0,15-6.5,27-19.5,36c-13,9-30.7,13.5-53.1,13.5C696.2,725.9,683.6,724.2,671.2,720.8z"/>
		<path class="st2" d="M910.4,715.2c-4.4,3.6-9.7,6.3-16,8.1c-6.3,1.8-12.9,2.7-19.9,2.7c-17.6,0-31.2-4.6-40.8-13.8
			c-9.6-9.2-14.4-22.6-14.4-40.2v-77h-26.4v-30h26.4v-36.6h37.5V565h42.9v30h-42.9v76.1c0,7.8,1.9,13.7,5.7,17.8
			c3.8,4.1,9.3,6.1,16.5,6.1c8.4,0,15.4-2.2,21-6.6L910.4,715.2z"/>
		<path class="st2" d="M1096.2,563.8v160.1h-35.7v-20.4c-6,7.2-13.5,12.7-22.5,16.6c-9,3.9-18.7,5.8-29.1,5.8
			c-21.4,0-38.2-5.9-50.5-17.8c-12.3-11.9-18.4-29.5-18.4-52.9v-91.4h37.5v86.3c0,14.4,3.2,25.1,9.7,32.2
			c6.5,7.1,15.7,10.6,27.7,10.6c13.4,0,24-4.1,31.9-12.4c7.9-8.3,11.8-20.2,11.8-35.8v-80.9H1096.2z"/>
		<path class="st2" d="M1302.1,501.4v222.4h-36v-20.7c-6.2,7.6-13.8,13.3-22.9,17.1c-9.1,3.8-19.1,5.7-30.1,5.7
			c-15.4,0-29.2-3.4-41.5-10.2c-12.3-6.8-21.9-16.4-28.9-28.9c-7-12.5-10.5-26.8-10.5-43c0-16.2,3.5-30.5,10.5-42.9
			c7-12.4,16.6-22,28.9-28.8c12.3-6.8,26.1-10.2,41.5-10.2c10.6,0,20.3,1.8,29.1,5.4c8.8,3.6,16.3,9,22.5,16.2v-82.1H1302.1z
			 M1241.9,687.7c7.2-4.1,12.9-9.9,17.1-17.5c4.2-7.6,6.3-16.4,6.3-26.4c0-10-2.1-18.8-6.3-26.4c-4.2-7.6-9.9-13.4-17.1-17.5
			c-7.2-4.1-15.3-6.1-24.3-6.1s-17.1,2.1-24.3,6.1c-7.2,4.1-12.9,9.9-17.1,17.5c-4.2,7.6-6.3,16.4-6.3,26.4c0,10,2.1,18.8,6.3,26.4
			c4.2,7.6,9.9,13.4,17.1,17.5c7.2,4.1,15.3,6.1,24.3,6.1S1234.7,691.8,1241.9,687.7z"/>
		<path class="st2" d="M1501.2,563.8l-74.9,173c-7,17.4-15.5,29.6-25.5,36.7c-10,7.1-22.1,10.6-36.3,10.6c-8,0-15.9-1.3-23.7-3.9
			c-7.8-2.6-14.2-6.2-19.2-10.8l15-27.6c3.6,3.4,7.8,6.1,12.7,8.1c4.9,2,9.8,3,14.8,3c6.6,0,12-1.7,16.3-5.1
			c4.3-3.4,8.2-9.1,11.8-17.1l2.7-6.3l-69.8-160.7h39l50.4,118.4l50.7-118.4H1501.2z"/>
	</g>
</g>
</svg>
