<svg width="32" height="32" viewBox="0 0 32 32" fill="none" xmlns="http://www.w3.org/2000/svg">
<path d="M13.3953 4.55828C14.547 2.54283 17.453 2.54283 18.6047 4.55828L29.4352 23.5116C30.578 25.5116 29.1339 28 26.8305 28H5.16954C2.86607 28 1.42197 25.5116 2.56481 23.5116L13.3953 4.55828Z" fill="#462C53"/>
<path d="M17.463 10H14.463L15.0556 21H17.0556L17.463 10Z" fill="white"/>
<path d="M13.3953 4.55828C14.547 2.54283 17.453 2.54283 18.6047 4.55828L29.4352 23.5116C30.578 25.5116 29.1339 28 26.8305 28H5.16954C2.86607 28 1.42197 25.5116 2.56481 23.5116L13.3953 4.55828Z" stroke="white" stroke-width="3"/>
<circle cx="16" cy="23.25" r="1.25" fill="white"/>
</svg>
